<svg width="28" height="28" viewBox="0 0 28 28" fill="none" xmlns="http://www.w3.org/2000/svg">
  <path d="M9.51016 21.7328C9.51016 21.8422 9.38437 21.9297 9.22578 21.9297C9.04531 21.9461 8.91953 21.8586 8.91953 21.7328C8.91953 21.6234 9.04531 21.5359 9.20391 21.5359C9.36797 21.5195 9.51016 21.607 9.51016 21.7328ZM7.80938 21.4867C7.77109 21.5961 7.88047 21.7219 8.04453 21.7547C8.18672 21.8094 8.35078 21.7547 8.38359 21.6453C8.41641 21.5359 8.3125 21.4102 8.14844 21.3609C8.00625 21.3227 7.84766 21.3773 7.80938 21.4867ZM10.2266 21.3938C10.068 21.432 9.95859 21.5359 9.975 21.6617C9.99141 21.7711 10.1336 21.8422 10.2977 21.8039C10.4563 21.7656 10.5656 21.6617 10.5492 21.5523C10.5328 21.4484 10.3852 21.3773 10.2266 21.3938ZM13.825 0.4375C6.23984 0.4375 0.4375 6.19609 0.4375 13.7812C0.4375 19.8461 4.25469 25.0359 9.70703 26.8625C10.407 26.9883 10.6531 26.5562 10.6531 26.2008C10.6531 25.8617 10.6367 23.9914 10.6367 22.843C10.6367 22.843 6.80859 23.6633 6.00469 21.2133C6.00469 21.2133 5.38125 19.6219 4.48438 19.2117C4.48438 19.2117 3.23203 18.3531 4.57188 18.3695C4.57188 18.3695 5.93359 18.4789 6.68281 19.7805C7.88047 21.8914 9.8875 21.2844 10.6695 20.9234C10.7953 20.0484 11.1508 19.4414 11.5445 19.0805C8.4875 18.7414 5.40313 18.2984 5.40313 13.0375C5.40313 11.5336 5.81875 10.7789 6.69375 9.81641C6.55156 9.46094 6.08672 7.99531 6.83594 6.10313C7.97891 5.74766 10.6094 7.57969 10.6094 7.57969C11.7031 7.27344 12.8789 7.11484 14.0437 7.11484C15.2086 7.11484 16.3844 7.27344 17.4781 7.57969C17.4781 7.57969 20.1086 5.74219 21.2516 6.10313C22.0008 8.00078 21.5359 9.46094 21.3938 9.81641C22.2688 10.7844 22.8047 11.5391 22.8047 13.0375C22.8047 18.3148 19.5836 18.7359 16.5266 19.0805C17.0297 19.5125 17.4563 20.3328 17.4563 21.618C17.4563 23.4609 17.4398 25.7414 17.4398 26.1898C17.4398 26.5453 17.6914 26.9773 18.3859 26.8516C23.8547 25.0359 27.5625 19.8461 27.5625 13.7812C27.5625 6.19609 21.4102 0.4375 13.825 0.4375ZM5.75312 19.2992C5.68203 19.3539 5.69844 19.4797 5.79141 19.5836C5.87891 19.6711 6.00469 19.7094 6.07578 19.6383C6.14687 19.5836 6.13047 19.4578 6.0375 19.3539C5.95 19.2664 5.82422 19.2281 5.75312 19.2992ZM5.1625 18.8562C5.12422 18.9273 5.17891 19.0148 5.28828 19.0695C5.37578 19.1242 5.48516 19.1078 5.52344 19.0312C5.56172 18.9602 5.50703 18.8727 5.39766 18.818C5.28828 18.7852 5.20078 18.8016 5.1625 18.8562ZM6.93438 20.8031C6.84688 20.8742 6.87969 21.0383 7.00547 21.1422C7.13125 21.268 7.28984 21.2844 7.36094 21.1969C7.43203 21.1258 7.39922 20.9617 7.28984 20.8578C7.16953 20.732 7.00547 20.7156 6.93438 20.8031ZM6.31094 19.9992C6.22344 20.0539 6.22344 20.1961 6.31094 20.3219C6.39844 20.4477 6.54609 20.5023 6.61719 20.4477C6.70469 20.3766 6.70469 20.2344 6.61719 20.1086C6.54063 19.9828 6.39844 19.9281 6.31094 19.9992Z" fill="#A9A5A5"/>
  </svg>
  